{
	"patcher" : 	{
		"fileversion" : 1,
		"appversion" : 		{
			"major" : 8,
			"minor" : 3,
			"revision" : 1,
			"architecture" : "x64",
			"modernui" : 1
		}
,
		"classnamespace" : "box",
		"rect" : [ 422.0, 108.0, 1003.0, 564.0 ],
		"bglocked" : 0,
		"openinpresentation" : 0,
		"default_fontsize" : 12.0,
		"default_fontface" : 0,
		"default_fontname" : "Arial",
		"gridonopen" : 1,
		"gridsize" : [ 15.0, 15.0 ],
		"gridsnaponopen" : 1,
		"objectsnaponopen" : 1,
		"statusbarvisible" : 2,
		"toolbarvisible" : 1,
		"lefttoolbarpinned" : 0,
		"toptoolbarpinned" : 0,
		"righttoolbarpinned" : 0,
		"bottomtoolbarpinned" : 0,
		"toolbars_unpinned_last_save" : 0,
		"tallnewobj" : 0,
		"boxanimatetime" : 200,
		"enablehscroll" : 1,
		"enablevscroll" : 1,
		"devicewidth" : 0.0,
		"description" : "",
		"digest" : "",
		"tags" : "",
		"style" : "",
		"subpatcher_template" : "",
		"assistshowspatchername" : 0,
		"boxes" : [ 			{
				"box" : 				{
					"id" : "obj-15",
					"linecount" : 2,
					"maxclass" : "comment",
					"numinlets" : 1,
					"numoutlets" : 0,
					"patching_rect" : [ 544.0, 366.5, 103.0, 33.0 ],
					"text" : "mag e phase out of for"
				}

			}
, 			{
				"box" : 				{
					"fontname" : "Lato",
					"fontsize" : 12.0,
					"id" : "obj-16",
					"maxclass" : "newobj",
					"numinlets" : 2,
					"numoutlets" : 0,
					"patching_rect" : [ 417.0, 427.0, 85.0, 23.0 ],
					"text" : "fftout~ 5 nofft"
				}

			}
, 			{
				"box" : 				{
					"fontname" : "Lato",
					"fontsize" : 12.0,
					"id" : "obj-17",
					"maxclass" : "newobj",
					"numinlets" : 3,
					"numoutlets" : 1,
					"outlettype" : [ "signal" ],
					"patcher" : 					{
						"fileversion" : 1,
						"appversion" : 						{
							"major" : 8,
							"minor" : 3,
							"revision" : 1,
							"architecture" : "x64",
							"modernui" : 1
						}
,
						"classnamespace" : "dsp.gen",
						"rect" : [ 85.0, 87.0, 1179.0, 779.0 ],
						"bglocked" : 0,
						"openinpresentation" : 0,
						"default_fontsize" : 12.0,
						"default_fontface" : 0,
						"default_fontname" : "Lato",
						"gridonopen" : 1,
						"gridsize" : [ 15.0, 15.0 ],
						"gridsnaponopen" : 1,
						"objectsnaponopen" : 1,
						"statusbarvisible" : 2,
						"toolbarvisible" : 1,
						"lefttoolbarpinned" : 0,
						"toptoolbarpinned" : 0,
						"righttoolbarpinned" : 0,
						"bottomtoolbarpinned" : 0,
						"toolbars_unpinned_last_save" : 0,
						"tallnewobj" : 0,
						"boxanimatetime" : 200,
						"enablehscroll" : 1,
						"enablevscroll" : 1,
						"devicewidth" : 0.0,
						"description" : "",
						"digest" : "",
						"tags" : "",
						"style" : "",
						"subpatcher_template" : "",
						"assistshowspatchername" : 0,
						"boxes" : [ 							{
								"box" : 								{
									"code" : "History last(0.);\r\nHistory phaseDeviation(0.);\r\nHistory magnitudeDifference(0.);\r\nHistory phaseVal(0.);\r\nHistory csd(0.);\r\nHistory prevPhase(0.);\r\nHistory prevPhase2(0.);\r\nHistory prevMagSpec(0.);\r\n\r\nreal = in1;\r\nimag = in2;\r\nindex = in3;\r\n//magSpec, phase = cartopol(in1, in2); // try to put it in the if\r\n\r\n\r\n\r\nsum = last;\t// the value we send out, initialized to zero \r\n\r\n\r\n// calculate spectral difference detection function sample (half wave rectified)\r\nif (index < (VECTORSIZE-1)) {\r\n\t// while the index is below (vectorsize - 1)\r\n\t\r\n\t// calculate magnitude value\r\n\tmagSpec = sqrt(real * real + imag * imag);\r\n\t\r\n\t// calculate phase value\r\n\tphase = atan2(imag, real);\r\n\t\r\n\t// phase deviation\r\n\tphaseDeviation = phase - (2*prevPhase) + prevPhase2;\r\n\t\r\n\t// calculate complex spectral difference for the current spectral bin\n    csd = sqrt(pow(magSpec, 2) + pow(prevMagSpec, 2) - 2 * magSpec * prevMagSpec * cos(phaseDeviation));\n        \n    // add to sum\n    sum = sum + csd;\t\r\n\t\t\r\n\t// store values for next calculation\r\n\tprevPhase2 = prevPhase;\r\n\tprevPhase = phase;\r\n\tprevMagSpec = magSpec;\r\n\t\r\n} else {\r\n\t\r\n\t// we now have a full frame; recalculate sum\r\n\tsum *= SAMPLERATE / FFTSIZE;\r\n\tsum *= FFTHOP / VECTORSIZE;\r\n\t\r\n\t// reset History\r\n\tphaseDeviation = 0;\r\n\tmagnitudeDifference = 0;\r\n\tphaseVal = 0;\r\n\tcsd = 0;\r\n\t\r\n\t\r\n\t// store new sum for next sample\r\n\tlast = sum;\r\n}\r\n\r\n// return\r\nout = sum;",
									"fontface" : 0,
									"fontname" : "<Monospaced>",
									"fontsize" : 12.0,
									"id" : "obj-26",
									"maxclass" : "codebox",
									"numinlets" : 3,
									"numoutlets" : 1,
									"outlettype" : [ "" ],
									"patching_rect" : [ 40.0, 61.0, 923.0, 609.0 ]
								}

							}
, 							{
								"box" : 								{
									"fontname" : "Lato",
									"fontsize" : 12.0,
									"id" : "obj-8",
									"maxclass" : "newobj",
									"numinlets" : 0,
									"numoutlets" : 1,
									"outlettype" : [ "" ],
									"patching_rect" : [ 572.0, 23.0, 30.0, 23.0 ],
									"text" : "in 3"
								}

							}
, 							{
								"box" : 								{
									"fontname" : "Lato",
									"fontsize" : 12.0,
									"id" : "obj-1",
									"maxclass" : "newobj",
									"numinlets" : 0,
									"numoutlets" : 1,
									"outlettype" : [ "" ],
									"patching_rect" : [ 40.0, 23.0, 30.0, 23.0 ],
									"text" : "in 1"
								}

							}
, 							{
								"box" : 								{
									"fontname" : "Lato",
									"fontsize" : 12.0,
									"id" : "obj-2",
									"maxclass" : "newobj",
									"numinlets" : 0,
									"numoutlets" : 1,
									"outlettype" : [ "" ],
									"patching_rect" : [ 306.0, 23.0, 30.0, 23.0 ],
									"text" : "in 2"
								}

							}
, 							{
								"box" : 								{
									"fontname" : "Lato",
									"fontsize" : 12.0,
									"id" : "obj-4",
									"maxclass" : "newobj",
									"numinlets" : 1,
									"numoutlets" : 0,
									"patching_rect" : [ 40.0, 674.0, 37.0, 23.0 ],
									"text" : "out 1"
								}

							}
 ],
						"lines" : [ 							{
								"patchline" : 								{
									"destination" : [ "obj-26", 0 ],
									"source" : [ "obj-1", 0 ]
								}

							}
, 							{
								"patchline" : 								{
									"destination" : [ "obj-26", 1 ],
									"source" : [ "obj-2", 0 ]
								}

							}
, 							{
								"patchline" : 								{
									"destination" : [ "obj-4", 0 ],
									"source" : [ "obj-26", 0 ]
								}

							}
, 							{
								"patchline" : 								{
									"destination" : [ "obj-26", 2 ],
									"source" : [ "obj-8", 0 ]
								}

							}
 ],
						"bgcolor" : [ 0.9, 0.9, 0.9, 1.0 ],
						"editing_bgcolor" : [ 0.9, 0.9, 0.9, 1.0 ]
					}
,
					"patching_rect" : [ 417.0, 365.0, 123.0, 23.0 ],
					"text" : "gen~"
				}

			}
, 			{
				"box" : 				{
					"id" : "obj-7",
					"maxclass" : "comment",
					"numinlets" : 1,
					"numoutlets" : 0,
					"patching_rect" : [ 411.0, 304.5, 103.0, 20.0 ],
					"text" : "non HWR Beat"
				}

			}
, 			{
				"box" : 				{
					"fontname" : "Lato",
					"fontsize" : 12.0,
					"id" : "obj-9",
					"maxclass" : "newobj",
					"numinlets" : 2,
					"numoutlets" : 0,
					"patching_rect" : [ 284.0, 365.0, 85.0, 23.0 ],
					"text" : "fftout~ 4 nofft"
				}

			}
, 			{
				"box" : 				{
					"fontname" : "Lato",
					"fontsize" : 12.0,
					"id" : "obj-14",
					"maxclass" : "newobj",
					"numinlets" : 3,
					"numoutlets" : 1,
					"outlettype" : [ "signal" ],
					"patcher" : 					{
						"fileversion" : 1,
						"appversion" : 						{
							"major" : 8,
							"minor" : 3,
							"revision" : 1,
							"architecture" : "x64",
							"modernui" : 1
						}
,
						"classnamespace" : "dsp.gen",
						"rect" : [ 153.0, 87.0, 1179.0, 779.0 ],
						"bglocked" : 0,
						"openinpresentation" : 0,
						"default_fontsize" : 12.0,
						"default_fontface" : 0,
						"default_fontname" : "Lato",
						"gridonopen" : 1,
						"gridsize" : [ 15.0, 15.0 ],
						"gridsnaponopen" : 1,
						"objectsnaponopen" : 1,
						"statusbarvisible" : 2,
						"toolbarvisible" : 1,
						"lefttoolbarpinned" : 0,
						"toptoolbarpinned" : 0,
						"righttoolbarpinned" : 0,
						"bottomtoolbarpinned" : 0,
						"toolbars_unpinned_last_save" : 0,
						"tallnewobj" : 0,
						"boxanimatetime" : 200,
						"enablehscroll" : 1,
						"enablevscroll" : 1,
						"devicewidth" : 0.0,
						"description" : "",
						"digest" : "",
						"tags" : "",
						"style" : "",
						"subpatcher_template" : "",
						"assistshowspatchername" : 0,
						"boxes" : [ 							{
								"box" : 								{
									"code" : "History last(0.);\r\nHistory phaseDeviation(0.);\r\nHistory magnitudeDifference(0.);\r\nHistory phaseVal(0.);\r\nHistory csd(0.);\r\nHistory prevPhase(0.);\r\nHistory prevPhase2(0.);\r\nHistory prevMagSpec(0.);\r\n\r\nreal = in1;\r\nimag = in2;\r\nindex = in3;\r\n//magSpec, phase = cartopol(in1, in2); // try to put it in the if\r\n\r\nsum = last;\t// the value we send out, initialized to zero \r\n\r\n\r\n// calculate spectral difference detection function sample (half wave rectified)\r\nif (index < (VECTORSIZE-1)) {\r\n\t// while the index is below (vectorsize - 1)\r\n\t\r\n\t// calculate magnitude value\r\n\tmagSpec = sqrt(real * real + imag * imag);\r\n\t\r\n\t// calculate phase value\r\n\tphase = atan2(imag, real);\r\n\t\r\n\t// phase deviation\r\n\tphaseDeviation = phase - (2*prevPhase) + prevPhase2;\r\n\t\r\n\t// calculate complex spectral difference for the current spectral bin\n    csd = sqrt(pow(magSpec, 2) + pow(prevMagSpec, 2) - 2 * magSpec * prevMagSpec * cos(phaseDeviation));\n        \n    // add to sum\n    sum = sum + csd;\t\r\n\t\t\r\n\t// store values for next calculation\r\n\tprevPhase2 = prevPhase;\r\n\tprevPhase = phase;\r\n\tprevMagSpec = magSpec;\r\n\t\r\n} else {\r\n\t\r\n\t// we now have a full frame; recalculate sum\r\n\tsum *= SAMPLERATE / FFTSIZE;\r\n\tsum *= FFTHOP / VECTORSIZE;\r\n\t\r\n\t// reset History\r\n\tphaseDeviation = 0;\r\n\tmagnitudeDifference = 0;\r\n\tphaseVal = 0;\r\n\tcsd = 0;\r\n\t\r\n\t\r\n\t// store new sum for next sample\r\n\tlast = sum;\r\n}\r\n\r\n// return\r\nout = sum;",
									"fontface" : 0,
									"fontname" : "<Monospaced>",
									"fontsize" : 12.0,
									"id" : "obj-26",
									"maxclass" : "codebox",
									"numinlets" : 3,
									"numoutlets" : 1,
									"outlettype" : [ "" ],
									"patching_rect" : [ 40.0, 61.0, 923.0, 609.0 ]
								}

							}
, 							{
								"box" : 								{
									"fontname" : "Lato",
									"fontsize" : 12.0,
									"id" : "obj-8",
									"maxclass" : "newobj",
									"numinlets" : 0,
									"numoutlets" : 1,
									"outlettype" : [ "" ],
									"patching_rect" : [ 572.0, 23.0, 30.0, 23.0 ],
									"text" : "in 3"
								}

							}
, 							{
								"box" : 								{
									"fontname" : "Lato",
									"fontsize" : 12.0,
									"id" : "obj-1",
									"maxclass" : "newobj",
									"numinlets" : 0,
									"numoutlets" : 1,
									"outlettype" : [ "" ],
									"patching_rect" : [ 40.0, 23.0, 30.0, 23.0 ],
									"text" : "in 1"
								}

							}
, 							{
								"box" : 								{
									"fontname" : "Lato",
									"fontsize" : 12.0,
									"id" : "obj-2",
									"maxclass" : "newobj",
									"numinlets" : 0,
									"numoutlets" : 1,
									"outlettype" : [ "" ],
									"patching_rect" : [ 306.0, 23.0, 30.0, 23.0 ],
									"text" : "in 2"
								}

							}
, 							{
								"box" : 								{
									"fontname" : "Lato",
									"fontsize" : 12.0,
									"id" : "obj-4",
									"maxclass" : "newobj",
									"numinlets" : 1,
									"numoutlets" : 0,
									"patching_rect" : [ 40.0, 674.0, 37.0, 23.0 ],
									"text" : "out 1"
								}

							}
 ],
						"lines" : [ 							{
								"patchline" : 								{
									"destination" : [ "obj-26", 0 ],
									"source" : [ "obj-1", 0 ]
								}

							}
, 							{
								"patchline" : 								{
									"destination" : [ "obj-26", 1 ],
									"source" : [ "obj-2", 0 ]
								}

							}
, 							{
								"patchline" : 								{
									"destination" : [ "obj-4", 0 ],
									"source" : [ "obj-26", 0 ]
								}

							}
, 							{
								"patchline" : 								{
									"destination" : [ "obj-26", 2 ],
									"source" : [ "obj-8", 0 ]
								}

							}
 ],
						"bgcolor" : [ 0.9, 0.9, 0.9, 1.0 ],
						"editing_bgcolor" : [ 0.9, 0.9, 0.9, 1.0 ]
					}
,
					"patching_rect" : [ 284.0, 303.0, 123.0, 23.0 ],
					"text" : "gen~"
				}

			}
, 			{
				"box" : 				{
					"id" : "obj-11",
					"linecount" : 2,
					"maxclass" : "comment",
					"numinlets" : 1,
					"numoutlets" : 0,
					"patching_rect" : [ 544.0, 173.5, 103.0, 33.0 ],
					"text" : "new experiment\ngist"
				}

			}
, 			{
				"box" : 				{
					"fontname" : "Lato",
					"fontsize" : 12.0,
					"id" : "obj-12",
					"maxclass" : "newobj",
					"numinlets" : 2,
					"numoutlets" : 0,
					"patching_rect" : [ 417.0, 234.0, 85.0, 23.0 ],
					"text" : "fftout~ 3 nofft"
				}

			}
, 			{
				"box" : 				{
					"fontname" : "Lato",
					"fontsize" : 12.0,
					"id" : "obj-13",
					"maxclass" : "newobj",
					"numinlets" : 3,
					"numoutlets" : 1,
					"outlettype" : [ "signal" ],
					"patcher" : 					{
						"fileversion" : 1,
						"appversion" : 						{
							"major" : 8,
							"minor" : 3,
							"revision" : 1,
							"architecture" : "x64",
							"modernui" : 1
						}
,
						"classnamespace" : "dsp.gen",
						"rect" : [ 782.0, 87.0, 951.0, 708.0 ],
						"bglocked" : 0,
						"openinpresentation" : 0,
						"default_fontsize" : 12.0,
						"default_fontface" : 0,
						"default_fontname" : "Lato",
						"gridonopen" : 1,
						"gridsize" : [ 15.0, 15.0 ],
						"gridsnaponopen" : 1,
						"objectsnaponopen" : 1,
						"statusbarvisible" : 2,
						"toolbarvisible" : 1,
						"lefttoolbarpinned" : 0,
						"toptoolbarpinned" : 0,
						"righttoolbarpinned" : 0,
						"bottomtoolbarpinned" : 0,
						"toolbars_unpinned_last_save" : 0,
						"tallnewobj" : 0,
						"boxanimatetime" : 200,
						"enablehscroll" : 1,
						"enablevscroll" : 1,
						"devicewidth" : 0.0,
						"description" : "",
						"digest" : "",
						"tags" : "",
						"style" : "",
						"subpatcher_template" : "",
						"assistshowspatchername" : 0,
						"boxes" : [ 							{
								"box" : 								{
									"code" : "History last(0.);\r\nHistory phaseDeviation(0.);\r\nHistory magnitudeDifference(0.);\r\nHistory phaseVal(0.);\r\nHistory magVal(0.);\r\nHistory phaseDiff(0.);\r\nHistory csd(0.);\r\nHistory prevPhase(0.);\r\nHistory prevPhase2(0.);\r\nHistory prevMagSpec(0.);\r\n\r\nreal = in1;\r\nimag = in2;\r\nindex = in3;\r\n//magSpec, phase = cartopol(in1, in2); // try to put it in the if\r\n\r\nhopSize = 512;\r\n\r\nsum = last;\t// the value we send out, initialized to zero \r\n\r\n\r\n// calculate spectral difference detection function sample (half wave rectified)\r\nif (index < (VECTORSIZE-1)) {\r\n\t// while the index is below (vectorsize - 1)\r\n\t\r\n\t// calculate magnitude value\r\n\tmagSpec = sqrt(real * real + imag * imag);\r\n\t\r\n\t// calculate phase value\r\n\tphase = atan2(imag, real);\r\n\t\r\n\t// phase deviation\r\n\tphaseDeviation = phase - (2*prevPhase) + prevPhase2;\r\n\t\r\n\t// wrap into [-pi,pi] range\n    pdev = wrap(phaseDeviation, -PI, PI);\r\n\t\r\n\t// calculate magnitude difference (real part of Euclidean distance between complex frames)\r\n\tmagnitudeDifference = magSpec - prevMagSpec;\r\n\t\r\n\t// calculate phase difference (imaginary part of Euclidean distance between complex frames)\n    phaseDiff = -magSpec * sin(pdev);\r\n\r\n\t// square real and imaginary parts, sum and take square root\n    value = sqrt ((magnitudeDifference * magnitudeDifference) + (phaseDiff * phaseDiff));\r\n\r\n\t// add to sum\n    sum = sum + value;\r\n\t\r\n\t// store values for next calculation\r\n\tprevPhase2 = prevPhase;\r\n\tprevPhase = phase;\r\n\tprevMagSpec = magSpec;\r\n\t\r\n\t\r\n} else {\r\n\t\r\n\t// we now have a full frame; recalculate sum\r\n\tsum *= SAMPLERATE / FFTSIZE;\r\n\tsum *= FFTHOP / VECTORSIZE;\r\n\t\r\n\t// reset History\r\n\tphaseDeviation = 0;\r\n\tmagnitudeDifference = 0;\r\n\tphaseVal = 0;\r\n\tmagVal = 0;\r\n\tcsd = 0;\r\n\tprevPhase = 0;\r\n\tprevPhase2 = 0;\r\n\tprevMagSpec = 0;\r\n\tphaseDiff = 0;\r\n\t\r\n\t// store new sum for next sample\r\n\tlast = sum;\r\n}\r\n\r\n// return\r\nout = sum;",
									"fontface" : 0,
									"fontname" : "<Monospaced>",
									"fontsize" : 12.0,
									"id" : "obj-26",
									"maxclass" : "codebox",
									"numinlets" : 3,
									"numoutlets" : 1,
									"outlettype" : [ "" ],
									"patching_rect" : [ 40.0, 61.0, 922.0, 459.0 ]
								}

							}
, 							{
								"box" : 								{
									"fontname" : "Lato",
									"fontsize" : 12.0,
									"id" : "obj-8",
									"maxclass" : "newobj",
									"numinlets" : 0,
									"numoutlets" : 1,
									"outlettype" : [ "" ],
									"patching_rect" : [ 572.0, 23.0, 30.0, 23.0 ],
									"text" : "in 3"
								}

							}
, 							{
								"box" : 								{
									"fontname" : "Lato",
									"fontsize" : 12.0,
									"id" : "obj-1",
									"maxclass" : "newobj",
									"numinlets" : 0,
									"numoutlets" : 1,
									"outlettype" : [ "" ],
									"patching_rect" : [ 40.0, 23.0, 30.0, 23.0 ],
									"text" : "in 1"
								}

							}
, 							{
								"box" : 								{
									"fontname" : "Lato",
									"fontsize" : 12.0,
									"id" : "obj-2",
									"maxclass" : "newobj",
									"numinlets" : 0,
									"numoutlets" : 1,
									"outlettype" : [ "" ],
									"patching_rect" : [ 306.0, 23.0, 30.0, 23.0 ],
									"text" : "in 2"
								}

							}
, 							{
								"box" : 								{
									"fontname" : "Lato",
									"fontsize" : 12.0,
									"id" : "obj-4",
									"maxclass" : "newobj",
									"numinlets" : 1,
									"numoutlets" : 0,
									"patching_rect" : [ 40.0, 527.0, 37.0, 23.0 ],
									"text" : "out 1"
								}

							}
 ],
						"lines" : [ 							{
								"patchline" : 								{
									"destination" : [ "obj-26", 0 ],
									"source" : [ "obj-1", 0 ]
								}

							}
, 							{
								"patchline" : 								{
									"destination" : [ "obj-26", 1 ],
									"source" : [ "obj-2", 0 ]
								}

							}
, 							{
								"patchline" : 								{
									"destination" : [ "obj-4", 0 ],
									"source" : [ "obj-26", 0 ]
								}

							}
, 							{
								"patchline" : 								{
									"destination" : [ "obj-26", 2 ],
									"source" : [ "obj-8", 0 ]
								}

							}
 ],
						"bgcolor" : [ 0.9, 0.9, 0.9, 1.0 ],
						"editing_bgcolor" : [ 0.9, 0.9, 0.9, 1.0 ]
					}
,
					"patching_rect" : [ 417.0, 172.0, 123.0, 23.0 ],
					"text" : "gen~"
				}

			}
, 			{
				"box" : 				{
					"id" : "obj-10",
					"linecount" : 2,
					"maxclass" : "comment",
					"numinlets" : 1,
					"numoutlets" : 0,
					"patching_rect" : [ 363.0, 111.5, 103.0, 33.0 ],
					"text" : "new experiment HWR"
				}

			}
, 			{
				"box" : 				{
					"id" : "obj-8",
					"maxclass" : "comment",
					"numinlets" : 1,
					"numoutlets" : 0,
					"patching_rect" : [ 13.0, 110.0, 51.0, 20.0 ],
					"text" : "old one"
				}

			}
, 			{
				"box" : 				{
					"fontname" : "Lato",
					"fontsize" : 12.0,
					"id" : "obj-4",
					"maxclass" : "newobj",
					"numinlets" : 2,
					"numoutlets" : 0,
					"patching_rect" : [ 236.0, 172.0, 85.0, 23.0 ],
					"text" : "fftout~ 2 nofft"
				}

			}
, 			{
				"box" : 				{
					"fontname" : "Lato",
					"fontsize" : 12.0,
					"id" : "obj-6",
					"maxclass" : "newobj",
					"numinlets" : 3,
					"numoutlets" : 1,
					"outlettype" : [ "signal" ],
					"patcher" : 					{
						"fileversion" : 1,
						"appversion" : 						{
							"major" : 8,
							"minor" : 3,
							"revision" : 1,
							"architecture" : "x64",
							"modernui" : 1
						}
,
						"classnamespace" : "dsp.gen",
						"rect" : [ 240.0, 87.0, 1322.0, 607.0 ],
						"bglocked" : 0,
						"openinpresentation" : 0,
						"default_fontsize" : 12.0,
						"default_fontface" : 0,
						"default_fontname" : "Lato",
						"gridonopen" : 1,
						"gridsize" : [ 15.0, 15.0 ],
						"gridsnaponopen" : 1,
						"objectsnaponopen" : 1,
						"statusbarvisible" : 2,
						"toolbarvisible" : 1,
						"lefttoolbarpinned" : 0,
						"toptoolbarpinned" : 0,
						"righttoolbarpinned" : 0,
						"bottomtoolbarpinned" : 0,
						"toolbars_unpinned_last_save" : 0,
						"tallnewobj" : 0,
						"boxanimatetime" : 200,
						"enablehscroll" : 1,
						"enablevscroll" : 1,
						"devicewidth" : 0.0,
						"description" : "",
						"digest" : "",
						"tags" : "",
						"style" : "",
						"subpatcher_template" : "",
						"assistshowspatchername" : 0,
						"boxes" : [ 							{
								"box" : 								{
									"code" : "History last(0.);\r\nHistory phaseDeviation(0.);\r\nHistory magnitudeDifference(0.);\r\nHistory phaseVal(0.);\r\nHistory magVal(0.);\r\nHistory csd(0.);\r\nHistory prevPhase(0.);\r\nHistory prevPhase2(0.);\r\nHistory prevMagSpec(0.);\r\n\r\nreal = in1;\r\nimag = in2;\r\nindex = in3;\r\n//magSpec, phase = cartopol(in1, in2); // try to put it in the if\r\n\r\nsum = last;\t// the value we send out, initialized to zero \r\n\r\n\r\n// calculate spectral difference detection function sample (half wave rectified)\r\nif (index < (VECTORSIZE-1)) {\r\n\t// while the index is below (vectorsize - 1)\r\n\t\r\n\t// calculate magnitude value\r\n\tmagSpec = sqrt(real * real + imag * imag);\r\n\t\r\n\t// calculate phase value\r\n\tphase = atan2(imag, real);\r\n\t\r\n\t// phase deviation\r\n\tphaseDeviation = phase - (2*prevPhase) + prevPhase2;\r\n\t\r\n\t// calculate magnitude difference (real part of Euclidean distance between complex frames)\r\n\tmagnitudeDifference = magSpec - prevMagSpec;\r\n\r\n\t// if we have a positive change in magnitude, then include in sum, otherwise ignore (half-wave rectification)\r\n\tif (magnitudeDifference > 0) {\r\n\t\t\r\n\t\t// calculate complex spectral difference for the current spectral bin\n        csd = sqrt(pow(magSpec, 2) + pow(prevMagSpec, 2) - 2 * magSpec * prevMagSpec * cos(phaseDeviation));\n        \n        // add to sum\n        sum = sum + csd;\t\r\n\t\t\r\n\t}\r\n\t\r\n\t// store values for next calculation\r\n\tprevPhase2 = prevPhase;\r\n\tprevPhase = phase;\r\n\tprevMagSpec = magSpec;\r\n\t\r\n\t\r\n\t\r\n} else {\r\n\t\r\n\t\r\n\t// we now have a full frame; recalculate sum\r\n\tsum *= SAMPLERATE / FFTSIZE;\r\n\tsum *= FFTHOP / VECTORSIZE;\r\n\t\r\n\t// reset History\r\n\tphaseDeviation = 0;\r\n\tmagnitudeDifference = 0;\r\n\tphaseVal = 0;\r\n\tmagVal = 0;\r\n\tcsd = 0;\r\n\tprevPhase = 0;\r\n\tprevPhase2 = 0;\r\n\tprevMagSpec = 0;\r\n\t\r\n\t// store new sum for next sample\r\n\tlast = sum;\r\n}\r\n\r\n// return\r\nout1 = sum;",
									"fontface" : 0,
									"fontname" : "<Monospaced>",
									"fontsize" : 12.0,
									"id" : "obj-26",
									"maxclass" : "codebox",
									"numinlets" : 3,
									"numoutlets" : 1,
									"outlettype" : [ "" ],
									"patching_rect" : [ 40.0, 61.0, 922.0, 459.0 ]
								}

							}
, 							{
								"box" : 								{
									"fontname" : "Lato",
									"fontsize" : 12.0,
									"id" : "obj-8",
									"maxclass" : "newobj",
									"numinlets" : 0,
									"numoutlets" : 1,
									"outlettype" : [ "" ],
									"patching_rect" : [ 572.0, 23.0, 30.0, 23.0 ],
									"text" : "in 3"
								}

							}
, 							{
								"box" : 								{
									"fontname" : "Lato",
									"fontsize" : 12.0,
									"id" : "obj-1",
									"maxclass" : "newobj",
									"numinlets" : 0,
									"numoutlets" : 1,
									"outlettype" : [ "" ],
									"patching_rect" : [ 40.0, 23.0, 30.0, 23.0 ],
									"text" : "in 1"
								}

							}
, 							{
								"box" : 								{
									"fontname" : "Lato",
									"fontsize" : 12.0,
									"id" : "obj-2",
									"maxclass" : "newobj",
									"numinlets" : 0,
									"numoutlets" : 1,
									"outlettype" : [ "" ],
									"patching_rect" : [ 306.0, 23.0, 30.0, 23.0 ],
									"text" : "in 2"
								}

							}
, 							{
								"box" : 								{
									"fontname" : "Lato",
									"fontsize" : 12.0,
									"id" : "obj-4",
									"maxclass" : "newobj",
									"numinlets" : 1,
									"numoutlets" : 0,
									"patching_rect" : [ 40.0, 527.0, 37.0, 23.0 ],
									"text" : "out 1"
								}

							}
 ],
						"lines" : [ 							{
								"patchline" : 								{
									"destination" : [ "obj-26", 0 ],
									"source" : [ "obj-1", 0 ]
								}

							}
, 							{
								"patchline" : 								{
									"destination" : [ "obj-26", 1 ],
									"source" : [ "obj-2", 0 ]
								}

							}
, 							{
								"patchline" : 								{
									"destination" : [ "obj-4", 0 ],
									"source" : [ "obj-26", 0 ]
								}

							}
, 							{
								"patchline" : 								{
									"destination" : [ "obj-26", 2 ],
									"source" : [ "obj-8", 0 ]
								}

							}
 ],
						"bgcolor" : [ 0.9, 0.9, 0.9, 1.0 ],
						"editing_bgcolor" : [ 0.9, 0.9, 0.9, 1.0 ]
					}
,
					"patching_rect" : [ 236.0, 110.0, 123.0, 23.0 ],
					"text" : "gen~"
				}

			}
, 			{
				"box" : 				{
					"fontname" : "Lato",
					"fontsize" : 12.0,
					"id" : "obj-5",
					"maxclass" : "newobj",
					"numinlets" : 2,
					"numoutlets" : 0,
					"patching_rect" : [ 71.0, 172.0, 85.0, 23.0 ],
					"text" : "fftout~ 1 nofft"
				}

			}
, 			{
				"box" : 				{
					"fontname" : "Lato",
					"fontsize" : 12.0,
					"id" : "obj-3",
					"maxclass" : "newobj",
					"numinlets" : 3,
					"numoutlets" : 1,
					"outlettype" : [ "signal" ],
					"patcher" : 					{
						"fileversion" : 1,
						"appversion" : 						{
							"major" : 8,
							"minor" : 3,
							"revision" : 1,
							"architecture" : "x64",
							"modernui" : 1
						}
,
						"classnamespace" : "dsp.gen",
						"rect" : [ 385.0, 87.0, 1021.0, 607.0 ],
						"bglocked" : 0,
						"openinpresentation" : 0,
						"default_fontsize" : 12.0,
						"default_fontface" : 0,
						"default_fontname" : "Lato",
						"gridonopen" : 1,
						"gridsize" : [ 15.0, 15.0 ],
						"gridsnaponopen" : 1,
						"objectsnaponopen" : 1,
						"statusbarvisible" : 2,
						"toolbarvisible" : 1,
						"lefttoolbarpinned" : 0,
						"toptoolbarpinned" : 0,
						"righttoolbarpinned" : 0,
						"bottomtoolbarpinned" : 0,
						"toolbars_unpinned_last_save" : 0,
						"tallnewobj" : 0,
						"boxanimatetime" : 200,
						"enablehscroll" : 1,
						"enablevscroll" : 1,
						"devicewidth" : 0.0,
						"description" : "",
						"digest" : "",
						"tags" : "",
						"style" : "",
						"subpatcher_template" : "",
						"assistshowspatchername" : 0,
						"boxes" : [ 							{
								"box" : 								{
									"code" : "History last(0.);\r\nHistory phaseDeviation(0.);\r\nHistory magnitudeDifference(0.);\r\nBuffer frame(\"frame\");\r\nBuffer input(\"input\");\r\nreal = in1;\r\nimag = in2;\r\nindex = in3;\r\nmagSpec, phase = cartopol(in1, in2);\r\nprevPhase = 0;\r\nprevPhase2 = 0;\r\nprevMagSpec = 0;\r\nhopSize = 512;\r\n\r\nsum = last;\t// the value we send out, initialized to zero (odfSample)\r\n\r\n/*\r\n// shift audio samples back in frame by hop size\nfor (i = 0; i < (VECTORSIZE - hopSize); i += 1){\r\n\t\tcur_frame = peek(frame, i);\r\n\t\tpoke(frame, cur_frame, i+hopSize);\n}\r\n\r\n\r\n// add new samples to frame from input buffer\nj = 0;\nfor (i = (VECTORSIZE-hopSize); i < VECTORSIZE; i += 1) {\n\t\t\r\n\t\tcur_input = peek(input, j);\r\n\t\tpoke(frame, cur_input, i);\r\n\t\t//frame[i] = input[j];\n\t\tj += 1;\n}\r\n*/\r\n\r\n// calculate spectral difference detection function sample (half wave rectified)\r\nif (index < VECTORSIZE-1) {\r\n\t// accumulate while the index is below (vectorsize - 1)\r\n\tphaseDeviation = phase - (2*prevPhase) + prevPhase2;\r\n\tmagnitudeDifference = magSpec - prevMagSpec;\r\n\t\r\n\tif (magnitudeDifference > 0) {\r\n\t\t// calculate complex spectral difference for the current spectral bin\n        csd = sqrt(pow(magSpec, 2) + pow(prevMagSpec, 2) - 2 * magSpec * prevMagSpec * cos(phaseDeviation));\n        \n        // add to sum\n        sum = sum + csd;\t\r\n\t\t\r\n\t}\r\n\t\r\n\t\r\n} else {\r\n\t// we now have a full frame; recalculate val:\r\n\tprevPhase2 = prevPhase;\r\n\tprevPhase = phase;\r\n\tprevMagSpec = magSpec;\r\n\t\r\n\tsum *= SAMPLERATE / FFTSIZE;\r\n\tsum *= FFTHOP / VECTORSIZE;\r\n\t\r\n\t// store new sum for next sample\r\n\tlast = sum;\r\n}\r\n\r\nout = sum;",
									"fontface" : 0,
									"fontname" : "<Monospaced>",
									"fontsize" : 12.0,
									"id" : "obj-26",
									"maxclass" : "codebox",
									"numinlets" : 3,
									"numoutlets" : 1,
									"outlettype" : [ "" ],
									"patching_rect" : [ 40.0, 61.0, 922.0, 459.0 ]
								}

							}
, 							{
								"box" : 								{
									"fontname" : "Lato",
									"fontsize" : 12.0,
									"id" : "obj-8",
									"maxclass" : "newobj",
									"numinlets" : 0,
									"numoutlets" : 1,
									"outlettype" : [ "" ],
									"patching_rect" : [ 572.0, 23.0, 30.0, 23.0 ],
									"text" : "in 3"
								}

							}
, 							{
								"box" : 								{
									"fontname" : "Lato",
									"fontsize" : 12.0,
									"id" : "obj-1",
									"maxclass" : "newobj",
									"numinlets" : 0,
									"numoutlets" : 1,
									"outlettype" : [ "" ],
									"patching_rect" : [ 40.0, 23.0, 30.0, 23.0 ],
									"text" : "in 1"
								}

							}
, 							{
								"box" : 								{
									"fontname" : "Lato",
									"fontsize" : 12.0,
									"id" : "obj-2",
									"maxclass" : "newobj",
									"numinlets" : 0,
									"numoutlets" : 1,
									"outlettype" : [ "" ],
									"patching_rect" : [ 306.0, 23.0, 30.0, 23.0 ],
									"text" : "in 2"
								}

							}
, 							{
								"box" : 								{
									"fontname" : "Lato",
									"fontsize" : 12.0,
									"id" : "obj-4",
									"maxclass" : "newobj",
									"numinlets" : 1,
									"numoutlets" : 0,
									"patching_rect" : [ 40.0, 527.0, 37.0, 23.0 ],
									"text" : "out 1"
								}

							}
 ],
						"lines" : [ 							{
								"patchline" : 								{
									"destination" : [ "obj-26", 0 ],
									"source" : [ "obj-1", 0 ]
								}

							}
, 							{
								"patchline" : 								{
									"destination" : [ "obj-26", 1 ],
									"source" : [ "obj-2", 0 ]
								}

							}
, 							{
								"patchline" : 								{
									"destination" : [ "obj-4", 0 ],
									"source" : [ "obj-26", 0 ]
								}

							}
, 							{
								"patchline" : 								{
									"destination" : [ "obj-26", 2 ],
									"source" : [ "obj-8", 0 ]
								}

							}
 ],
						"bgcolor" : [ 0.9, 0.9, 0.9, 1.0 ],
						"editing_bgcolor" : [ 0.9, 0.9, 0.9, 1.0 ]
					}
,
					"patching_rect" : [ 71.0, 110.0, 123.0, 23.0 ],
					"text" : "gen~"
				}

			}
, 			{
				"box" : 				{
					"fontname" : "Lato",
					"fontsize" : 12.0,
					"id" : "obj-1",
					"maxclass" : "newobj",
					"numinlets" : 1,
					"numoutlets" : 3,
					"outlettype" : [ "signal", "signal", "signal" ],
					"patching_rect" : [ 71.0, 49.0, 123.0, 23.0 ],
					"text" : "fftin~ 1"
				}

			}
 ],
		"lines" : [ 			{
				"patchline" : 				{
					"destination" : [ "obj-13", 2 ],
					"order" : 1,
					"source" : [ "obj-1", 2 ]
				}

			}
, 			{
				"patchline" : 				{
					"destination" : [ "obj-13", 1 ],
					"order" : 1,
					"source" : [ "obj-1", 1 ]
				}

			}
, 			{
				"patchline" : 				{
					"destination" : [ "obj-13", 0 ],
					"order" : 1,
					"source" : [ "obj-1", 0 ]
				}

			}
, 			{
				"patchline" : 				{
					"destination" : [ "obj-14", 2 ],
					"order" : 2,
					"source" : [ "obj-1", 2 ]
				}

			}
, 			{
				"patchline" : 				{
					"destination" : [ "obj-14", 1 ],
					"order" : 2,
					"source" : [ "obj-1", 1 ]
				}

			}
, 			{
				"patchline" : 				{
					"destination" : [ "obj-14", 0 ],
					"order" : 2,
					"source" : [ "obj-1", 0 ]
				}

			}
, 			{
				"patchline" : 				{
					"destination" : [ "obj-17", 2 ],
					"order" : 0,
					"source" : [ "obj-1", 2 ]
				}

			}
, 			{
				"patchline" : 				{
					"destination" : [ "obj-17", 1 ],
					"order" : 0,
					"source" : [ "obj-1", 1 ]
				}

			}
, 			{
				"patchline" : 				{
					"destination" : [ "obj-17", 0 ],
					"order" : 0,
					"source" : [ "obj-1", 0 ]
				}

			}
, 			{
				"patchline" : 				{
					"destination" : [ "obj-3", 2 ],
					"order" : 4,
					"source" : [ "obj-1", 2 ]
				}

			}
, 			{
				"patchline" : 				{
					"destination" : [ "obj-3", 1 ],
					"order" : 4,
					"source" : [ "obj-1", 1 ]
				}

			}
, 			{
				"patchline" : 				{
					"destination" : [ "obj-3", 0 ],
					"order" : 4,
					"source" : [ "obj-1", 0 ]
				}

			}
, 			{
				"patchline" : 				{
					"destination" : [ "obj-6", 2 ],
					"order" : 3,
					"source" : [ "obj-1", 2 ]
				}

			}
, 			{
				"patchline" : 				{
					"destination" : [ "obj-6", 1 ],
					"order" : 3,
					"source" : [ "obj-1", 1 ]
				}

			}
, 			{
				"patchline" : 				{
					"destination" : [ "obj-6", 0 ],
					"order" : 3,
					"source" : [ "obj-1", 0 ]
				}

			}
, 			{
				"patchline" : 				{
					"destination" : [ "obj-12", 0 ],
					"source" : [ "obj-13", 0 ]
				}

			}
, 			{
				"patchline" : 				{
					"destination" : [ "obj-9", 0 ],
					"source" : [ "obj-14", 0 ]
				}

			}
, 			{
				"patchline" : 				{
					"destination" : [ "obj-16", 0 ],
					"source" : [ "obj-17", 0 ]
				}

			}
, 			{
				"patchline" : 				{
					"destination" : [ "obj-5", 0 ],
					"source" : [ "obj-3", 0 ]
				}

			}
, 			{
				"patchline" : 				{
					"destination" : [ "obj-4", 0 ],
					"source" : [ "obj-6", 0 ]
				}

			}
 ]
	}

}
